{"title":"The Gundown 2010 DVDrip English Klam","uid":6559663,"size":1457705130,"categoryP":"video","categoryS":"movies","magnet":"?xt=urn:btih:38862ed1d790d0901b0f9ab1f5b54b84308ca9dd&amp;dn=The+Gundown+2010+DVDrip+English+Klam&amp;tr=udp%3A%2F%2Ftracker.openbittorrent.com%3A80&amp;tr=udp%3A%2F%2Fopen.demonii.com%3A1337&amp;tr=udp%3A%2F%2Ftracker.coppersurfer.tk%3A6969&amp;tr=udp%3A%2F%2Fexodus.desync.com%3A6969","seeders":0,"leechers":0,"uploader":"Klambake","files":-1,"time":1311416098,"description":"Op zoek naar wraak en gerechtigheid, bevindt Cole Brandt zich in de wetteloze stad van Dead River, waar hij een mooie vrouw moet beschermen met een bloedige strijd...\n\nSeeking revenge and justice, Cole Brandt finds himself in the lawless town of Dead River,where he is faced with one last bloody showdown for freedom in order to protect, The Majestic Saloon and a beautiful woman.\n\n------------------ Dutch Friends ------------------\nYou can find my Friends at: http://www.Film-Test.nl \n------ They got my dutchs subs ---- and more ------\n\nGeneral:\n\nComplete name                    : The Gundown.avi\nFormat                           : AVI\nFormat/Info                      : Audio Video Interleave\nFile size                        : 1.36 GiB\nDuration                         : 1h 32mn\nOverall bit rate                 : 2 094 Kbps\n\nVideo:\n\nFormat                           : MPEG-4 Visual\nFormat profile                   : Simple@L3\nFormat settings, BVOP            : No\nFormat settings, QPel            : No\nFormat settings, GMC             : No warppoints\nFormat settings, Matrix          : Default (H.263)\nCodec ID                         : XVID\nCodec ID/Hint                    : XviD\nDuration                         : 1h 32mn\nBit rate                         : 1 699 Kbps\nWidth                            : 704 pixels\nHeight                           : 396 pixels\nDisplay aspect ratio             : 16:9\nFrame rate                       : 25.000 fps\nColor space                      : YUV\nChroma subsampling               : 4:2:0\nBit depth                        : 8 bits\nScan type                        : Progressive\nBits/(Pixel*Frame)               : 0.244\nStream size                      : 1.10 GiB (81%)\nWriting library                  : XviD 1.1.2 (UTC 2006-11-01)\n\nAudio:\n\nFormat                           : AC-3\nFormat/Info                      : Audio Coding 3\nMode extension                   : CM (complete main)\nCodec ID                         : 2000\nDuration                         : 1h 32mn\nBit rate mode                    : Constant\nBit rate                         : 384 Kbps\nChannel(s)                       : 6 channels\nChannel positions                : Front: L C R, Side: L R, LFE\nSampling rate                    : 48.0 KHz\nBit depth                        : 16 bits\nStream size                      : 255 MiB (18%)\nAlignment                        : Aligned on interleaves\nInterleave, duration             : 32 ms (0.80 video frame)\nInterleave, preload duration     : 608 ms\n\n","torrent":{"xt":"urn:btih:38862ed1d790d0901b0f9ab1f5b54b84308ca9dd","amp;dn":"The+Gundown+2010+DVDrip+English+Klam","amp;tr":["udp%3A%2F%2Ftracker.openbittorrent.com%3A80","udp%3A%2F%2Fopen.demonii.com%3A1337","udp%3A%2F%2Ftracker.coppersurfer.tk%3A6969","udp%3A%2F%2Fexodus.desync.com%3A6969"],"infoHash":"38862ed1d790d0901b0f9ab1f5b54b84308ca9dd","infoHashBuffer":{"type":"Buffer","data":[56,134,46,209,215,144,208,144,27,15,154,177,245,181,75,132,48,140,169,221]},"announce":[],"urlList":[]}}